<?xml version="1.0" encoding="UTF-8" standalone="no"?>
<svg
   xmlns:dc="http://purl.org/dc/elements/1.1/"
   xmlns:cc="http://creativecommons.org/ns#"
   xmlns:rdf="http://www.w3.org/1999/02/22-rdf-syntax-ns#"
   xmlns:svg="http://www.w3.org/2000/svg"
   xmlns="http://www.w3.org/2000/svg"
   id="svg36"
   xml:space="preserve"
   viewBox="0 0 4924 3500"
   height="3500"
   width="4924"
   version="1.1"><metadata
     id="metadata40"><rdf:RDF><cc:Work
         rdf:about=""><dc:format>image/svg+xml</dc:format><dc:type
           rdf:resource="http://purl.org/dc/dcmitype/StillImage" /></cc:Work></rdf:RDF></metadata><desc
     id="desc2">Created with Fabric.js 1.7.7</desc><defs
     id="defs4" /><g
     id="g34"
     transform="translate(2462.33,1750)"><g
       id="g32"
       transform="scale(22.05)"><g
         id="g24"
         transform="matrix(0.27,0,0,0.27,-8.8,-16.98)"><path
           id="polygon6"
           d="M 316.5,182.15 279.08,172.1 90.62,222.69 128.03,232.73 Z"
           style="opacity:1;fill:none;fill-rule:nonzero;stroke:none;stroke-width:1;stroke-linecap:butt;stroke-linejoin:miter;stroke-miterlimit:10;stroke-dasharray:none"
           transform="translate(-202,-202.005)" /><path
           id="polygon8"
           d="m 10.46,307.33 309.91,83.22 V 347.51 L 90.62,285.82 Z"
           style="opacity:1;fill:#021b5e;fill-rule:nonzero;stroke:none;stroke-width:1;stroke-linecap:butt;stroke-linejoin:miter;stroke-miterlimit:10;stroke-dasharray:none"
           transform="translate(-201.995,-201.995)" /><path
           id="polygon10"
           d="M 320.37,327.42 V 284.38 L 208.19,254.26 128.03,275.77 Z"
           style="opacity:1;fill:#021b5e;fill-rule:nonzero;stroke:none;stroke-width:1;stroke-linecap:butt;stroke-linejoin:miter;stroke-miterlimit:10;stroke-dasharray:none"
           transform="translate(-202,-202)" /><path
           id="polygon12"
           d="M 128.03,232.73 90.62,222.69 10.46,244.2 v 0.01 l 37.4,10.04 z"
           style="opacity:1;fill:#021b5e;fill-rule:nonzero;stroke:none;stroke-width:1;stroke-linecap:butt;stroke-linejoin:miter;stroke-miterlimit:10;stroke-dasharray:none"
           transform="translate(-201.995,-202)" /><path
           id="polygon14"
           d="m 279.08,172.1 37.42,10.05 77.04,-20.68 v -1.68 l -34.29,-9.2 z"
           style="opacity:1;fill:#021b5e;fill-rule:nonzero;stroke:none;stroke-width:1;stroke-linecap:butt;stroke-linejoin:miter;stroke-miterlimit:10;stroke-dasharray:none"
           transform="translate(-202,-202)" /><path
           id="polygon16"
           d="m 83.63,76.58 v 43.04 l 115.29,30.96 80.16,-21.52 z"
           style="opacity:1;fill:#021b5e;fill-rule:nonzero;stroke:none;stroke-width:1;stroke-linecap:butt;stroke-linejoin:miter;stroke-miterlimit:10;stroke-dasharray:none"
           transform="translate(-202.005,-202)" /><path
           id="polygon18"
           d="M 393.54,96.67 83.63,13.45 v 43.04 l 232.87,62.53 77.04,-20.68 z"
           style="opacity:1;fill:#021b5e;fill-rule:nonzero;stroke:none;stroke-width:1;stroke-linecap:butt;stroke-linejoin:miter;stroke-miterlimit:10;stroke-dasharray:none"
           transform="translate(-201.995,-202.005)" /><path
           id="polygon20"
           d="m 10.46,244.2 80.16,-21.51 188.46,-50.59 80.17,-21.51 34.29,-9.21 v -1.67 -41.37 l -77.04,20.68 -37.42,10.04 -80.16,21.52 -188.46,50.58 z"
           style="opacity:1;fill:#8ad803;fill-rule:nonzero;stroke:none;stroke-width:1;stroke-linecap:butt;stroke-linejoin:miter;stroke-miterlimit:10;stroke-dasharray:none"
           transform="translate(-202,-202)" /><path
           id="polygon22"
           d="m 10.46,307.33 80.16,-21.51 37.41,-10.05 80.16,-21.51 185.35,-49.75 v -1.67 -41.37 l -77.04,20.68 -188.47,50.58 -80.17,21.52 -37.4,10.04 z"
           style="opacity:1;fill:#8ad803;fill-rule:nonzero;stroke:none;stroke-width:1;stroke-linecap:butt;stroke-linejoin:miter;stroke-miterlimit:10;stroke-dasharray:none"
           transform="translate(-202,-202)" /></g><g
         id="g30"
         transform="matrix(1.44,0,0,1.44,0,54.29)"><g
           id="text28"
           style="font-weight:normal;font-size:16px;font-family:Aclonica;opacity:1;fill:#021b5e;fill-rule:nonzero;stroke:none;stroke-width:1;stroke-linecap:butt;stroke-linejoin:miter;stroke-miterlimit:10;stroke-dasharray:none"
           aria-label="Pristine Probizz"><path
             id="path51"
             style="fill:#021b5e"
             d="m -64.805,5.04 h -3.101563 V -6.21 h 6.078125 q 0.789063,0 1.507813,0.2109375 0.726562,0.2109375 1.28125,0.640625 0.554687,0.421875 0.882812,1.0703125 0.335938,0.640625 0.335938,1.5078125 0,0.546875 -0.15625,1.03125 -0.15625,0.4765625 -0.4375,0.87499996 -0.273438,0.3984375 -0.648438,0.71875 -0.375,0.3203125 -0.820312,0.5390625 -0.445313,0.21875 -0.945313,0.3359375 -0.492187,0.1171875 -1,0.1171875 H -64.805 Z m 3.84375,-7.8203125 q 0,-1.0859375 -0.554688,-1.703125 -0.546875,-0.625 -1.65625,-0.625 H -64.805 v 4.88281246 h 1.632812 q 0.59375,0 1.007813,-0.1875 0.421875,-0.1953125 0.6875,-0.5390625 0.265625,-0.34374996 0.390625,-0.80468746 0.125,-0.46875 0.125,-1.0234375 z" /><path
             id="path53"
             style="fill:#021b5e"
             d="m -48.781563,-3.1865625 -1.484375,2.46093746 q -0.09375,-0.31249996 -0.242187,-0.70312496 -0.148438,-0.390625 -0.367188,-0.7265625 -0.21875,-0.34375 -0.523437,-0.5703125 Q -51.703438,-2.96 -52.101875,-2.96 q -0.367188,0 -0.640625,0.1875 -0.265625,0.1875 -0.453125,0.4921875 -0.1875,0.296875 -0.3125,0.6796875 -0.117188,0.375 -0.1875,0.76562496 -0.0625,0.3828125 -0.08594,0.7421875 -0.02344,0.3515625 -0.02344,0.609375 V 5.04 h -2.648438 v -9.0234375 h 1.015625 l 1.070313,2.1015625 q 0.21875,-0.5078125 0.5,-0.9296875 0.28125,-0.4296875 0.648437,-0.734375 0.367188,-0.3125 0.828125,-0.484375 0.46875,-0.171875 1.054688,-0.171875 0.304687,0 0.679687,0.054687 0.375,0.046875 0.734375,0.171875 0.359375,0.1171875 0.664063,0.3125 0.304687,0.1953125 0.476562,0.4765625 z" /><path
             id="path55"
             style="fill:#021b5e"
             d="m -44.89875,-6.163125 q 0,0.296875 -0.117188,0.5625 -0.109375,0.265625 -0.304687,0.4609375 -0.195313,0.1953125 -0.460938,0.3125 -0.265625,0.109375 -0.5625,0.109375 -0.296875,0 -0.5625,-0.109375 -0.257812,-0.1171875 -0.453125,-0.3125 -0.195312,-0.1953125 -0.3125,-0.4609375 -0.109375,-0.265625 -0.109375,-0.5625 0,-0.296875 0.109375,-0.5546875 0.117188,-0.265625 0.3125,-0.4609375 0.195313,-0.1953125 0.453125,-0.3046875 0.265625,-0.1171875 0.5625,-0.1171875 0.296875,0 0.5625,0.1171875 0.265625,0.109375 0.460938,0.3046875 0.195312,0.1953125 0.304687,0.4609375 Q -44.89875,-6.46 -44.89875,-6.163125 Z M -45.015938,5.04 h -2.648437 v -9.015625 h 2.648437 z" /><path
             id="path57"
             style="fill:#021b5e"
             d="m -35.031563,2.1571875 q 0,0.59375 -0.171875,1.0546875 -0.171875,0.4609375 -0.46875,0.8046875 -0.296875,0.3359375 -0.703125,0.5703125 -0.40625,0.2265625 -0.875,0.3671875 -0.460937,0.140625 -0.96875,0.203125 -0.507812,0.0625 -1.007812,0.0625 -0.671875,0 -1.1875,-0.085937 Q -40.93,5.0478125 -41.39875,4.8603125 -41.8675,4.665 -42.33625,4.3603125 -42.797188,4.055625 -43.3675,3.618125 l 1.539062,-1.2578125 q 0.210938,0.3984375 0.554688,0.7265625 0.351562,0.3203125 0.726562,0.5546875 0.375,0.234375 0.726563,0.359375 0.351562,0.125 0.570312,0.125 0.179688,0 0.40625,-0.00781 0.226563,-0.015625 0.460938,-0.046875 0.234375,-0.039063 0.460937,-0.109375 0.226563,-0.070312 0.398438,-0.1875 0.179687,-0.125 0.28125,-0.3046875 0.109375,-0.1875 0.109375,-0.4453125 0,-0.265625 -0.140625,-0.4609375 -0.132813,-0.203125 -0.351563,-0.3515625 -0.21875,-0.1484375 -0.5,-0.25 -0.28125,-0.1015625 -0.570312,-0.1796875 -0.28125,-0.078125 -0.546875,-0.1328125 -0.265625,-0.0625 -0.460938,-0.1171875 -0.359375,-0.1015625 -0.757812,-0.203125 -0.398438,-0.109375 -0.789063,-0.2421875 -0.390625,-0.14062504 -0.75,-0.32812504 -0.351562,-0.1875 -0.625,-0.4453125 -0.265625,-0.265625 -0.429687,-0.6171875 -0.15625,-0.359375 -0.15625,-0.83593746 0,-0.875 0.34375,-1.4609375 0.351562,-0.59375 0.921875,-0.9453125 0.570312,-0.359375 1.296875,-0.5078125 0.726562,-0.1484375 1.476562,-0.1484375 0.515625,0 1.085938,0.109375 0.570312,0.1015625 1.109375,0.3125 0.539062,0.203125 1.007812,0.5 0.46875,0.296875 0.78125,0.6796875 L -36.726875,-1.335 Q -36.89875,-1.80375 -37.18,-2.1396875 q -0.273438,-0.3359375 -0.601563,-0.546875 -0.320312,-0.21875 -0.664062,-0.3203125 -0.335938,-0.1015625 -0.625,-0.1015625 -0.28125,0 -0.632813,0.023437 -0.351562,0.023437 -0.664062,0.1328125 -0.304688,0.109375 -0.523438,0.3359375 -0.210937,0.21875 -0.210937,0.609375 0,0.28125 0.125,0.484375 0.132812,0.1953125 0.34375,0.34375 0.210937,0.140625 0.476562,0.24218746 0.273438,0.09375 0.554688,0.171875 0.28125,0.0703125 0.546875,0.125 0.265625,0.0546875 0.476562,0.1171875 0.359375,0.1015625 0.757813,0.2109375 0.40625,0.1015625 0.796875,0.2421875 0.390625,0.1328125 0.75,0.3203125 0.367187,0.1796875 0.640625,0.4453125 0.273437,0.265625 0.4375,0.62500004 0.164062,0.3515625 0.164062,0.8359375 z" /><path
             id="path59"
             style="fill:#021b5e"
             d="m -29.96125,5.04 h -2.648438 v -7.9765625 h -1.640625 v -1.046875 h 1.640625 V -7.30375 h 2.648438 v 3.3203125 h 2.734375 v 1.046875 h -2.734375 z" /><path
             id="path61"
             style="fill:#021b5e"
             d="m -23.21125,-6.163125 q 0,0.296875 -0.117188,0.5625 -0.109375,0.265625 -0.304687,0.4609375 -0.195313,0.1953125 -0.460938,0.3125 -0.265625,0.109375 -0.5625,0.109375 -0.296875,0 -0.5625,-0.109375 -0.257812,-0.1171875 -0.453125,-0.3125 -0.195312,-0.1953125 -0.3125,-0.4609375 -0.109375,-0.265625 -0.109375,-0.5625 0,-0.296875 0.109375,-0.5546875 0.117188,-0.265625 0.3125,-0.4609375 0.195313,-0.1953125 0.453125,-0.3046875 0.265625,-0.1171875 0.5625,-0.1171875 0.296875,0 0.5625,0.1171875 0.265625,0.109375 0.460938,0.3046875 0.195312,0.1953125 0.304687,0.4609375 Q -23.21125,-6.46 -23.21125,-6.163125 Z M -23.328438,5.04 h -2.648437 v -9.015625 h 2.648437 z" /><path
             id="path63"
             style="fill:#021b5e"
             d="m -11.883125,-0.13187504 q 0,0.9140625 -0.226563,1.90625004 -0.21875,0.9921875 -0.617187,1.9453125 -0.398438,0.953125 -0.953125,1.7890625 -0.554688,0.84375 -1.21875,1.453125 l -0.992188,-0.5390625 q 0.210938,-0.390625 0.398438,-0.875 0.1875,-0.484375 0.335937,-1.0234375 0.15625,-0.546875 0.273438,-1.125 0.125,-0.578125 0.203125,-1.140625 0.08594,-0.5703125 0.125,-1.1015625 0.04687,-0.53906254 0.04687,-1.00000004 0,-0.3046875 -0.02344,-0.6484375 -0.02344,-0.3515625 -0.101562,-0.69531246 -0.07031,-0.3515625 -0.195313,-0.671875 -0.125,-0.3203125 -0.335937,-0.5625 -0.203125,-0.2421875 -0.5,-0.390625 Q -15.953438,-2.96 -16.351875,-2.96 q -0.390625,0 -0.695313,0.1796875 -0.304687,0.171875 -0.539062,0.4609375 -0.234375,0.28125 -0.40625,0.6484375 -0.164063,0.3671875 -0.273438,0.75781246 -0.101562,0.3828125 -0.148437,0.7578125 -0.04687,0.375 -0.04687,0.671875 V 5.04 h -2.648438 v -9.0234375 h 1.015625 l 1.210938,2.1015625 q 0.21875,-0.5234375 0.546875,-0.953125 0.328125,-0.4296875 0.742187,-0.734375 0.414063,-0.3046875 0.914063,-0.46875 0.507812,-0.1640625 1.09375,-0.1640625 0.9375,0 1.632812,0.3046875 0.695313,0.3046875 1.15625,0.8515625 0.460938,0.5390625 0.6875,1.2890625 0.226563,0.7421875 0.226563,1.62499996 z" /><path
             id="path65"
             style="fill:#021b5e"
             d="m -7.9690628,0.75874996 q 0.484375,0.109375 0.96875,0.171875 0.484375,0.0625 0.9765625,0.0625 0.515625,0 0.953125,-0.09375 0.4453125,-0.1015625 0.765625,-0.328125 0.328125,-0.234375 0.515625,-0.6171875 0.1875,-0.3828125 0.1875,-0.953125 0,-0.46093746 -0.125,-0.84374996 -0.125,-0.3828125 -0.375,-0.65625 -0.2421875,-0.2734375 -0.6015625,-0.421875 -0.359375,-0.15625 -0.8359375,-0.15625 -0.4453125,0 -0.8046875,0.1640625 -0.3515625,0.1640625 -0.625,0.4453125 -0.265625,0.2734375 -0.4609375,0.640625 -0.1875,0.3671875 -0.3125,0.765625 -0.125,0.39843746 -0.1796875,0.80468746 -0.054687,0.40625 -0.054687,0.765625 0,0.0625 0,0.125 0,0.0625 0.00781,0.125 z M -1.4612503,-1.0225 q 0,0.55468746 -0.1796875,0.99218746 -0.1796875,0.4296875 -0.4921875,0.7578125 -0.3046875,0.32812504 -0.7109375,0.55468754 -0.40625,0.2265625 -0.8671875,0.375 -0.4609375,0.140625 -0.953125,0.203125 -0.484375,0.0625 -0.9453125,0.0625 -0.5859375,0 -1.15625,-0.078125 -0.5703125,-0.085937 -1.125,-0.265625 0.085937,0.515625 0.2734375,0.984375 0.1875,0.4609375 0.5,0.8125 0.3125,0.34375 0.765625,0.546875 0.4609375,0.203125 1.0859375,0.203125 0.4140625,0 0.7890625,-0.125 0.375,-0.125 0.6875,-0.3515625 0.3125,-0.2265625 0.546875,-0.5390625 0.2421875,-0.3125 0.390625,-0.6953125 l 1.140625,0.421875 Q -1.9690628,3.4540625 -2.4221878,3.9071875 -2.8675003,4.3525 -3.4378128,4.649375 q -0.5625,0.2890625 -1.203125,0.4296875 -0.6328125,0.140625 -1.2578125,0.140625 -1.03125,0 -1.90625,-0.34375 Q -8.6800003,4.524375 -9.3128128,3.899375 -9.9456253,3.274375 -10.305,2.4071875 -10.664375,1.54 -10.664375,0.50874996 q 0,-1.03125 0.359375,-1.89843746 0.3593747,-0.8671875 0.9921872,-1.4921875 0.6328125,-0.625 1.5078125,-0.96875 0.875,-0.3515625 1.90625,-0.3515625 0.5,0 1.0234375,0.070312 0.5234375,0.070312 1.015625,0.2265625 0.4921875,0.1484375 0.9296875,0.390625 0.4375,0.2421875 0.7578125,0.6015625 0.328125,0.3515625 0.515625,0.8203125 0.1953125,0.46875 0.1953125,1.0703125 z" /><path
             id="path67"
             style="fill:#021b5e"
             d="M 8.0074997,5.04 H 4.9059372 V -6.21 h 6.0781248 q 0.789063,0 1.507813,0.2109375 0.726562,0.2109375 1.28125,0.640625 0.554687,0.421875 0.882812,1.0703125 0.335938,0.640625 0.335938,1.5078125 0,0.546875 -0.15625,1.03125 -0.15625,0.4765625 -0.4375,0.87499996 -0.273438,0.3984375 -0.648438,0.71875 -0.375,0.3203125 -0.820312,0.5390625 -0.445313,0.21875 -0.945313,0.3359375 -0.492187,0.1171875 -1,0.1171875 H 8.0074997 Z M 11.85125,-2.7803125 q 0,-1.0859375 -0.554688,-1.703125 -0.546875,-0.625 -1.6562498,-0.625 H 8.0074997 v 4.88281246 h 1.6328125 q 0.5937498,0 1.0078128,-0.1875 0.421875,-0.1953125 0.6875,-0.5390625 0.265625,-0.34374996 0.390625,-0.80468746 0.125,-0.46875 0.125,-1.0234375 z" /><path
             id="path69"
             style="fill:#021b5e"
             d="m 24.030937,-3.1865625 -1.484375,2.46093746 Q 22.452812,-1.038125 22.304375,-1.42875 22.155937,-1.819375 21.937187,-2.1553125 21.718437,-2.4990625 21.41375,-2.725625 21.109062,-2.96 20.710625,-2.96 q -0.367188,0 -0.640625,0.1875 -0.265625,0.1875 -0.453125,0.4921875 -0.1875,0.296875 -0.3125,0.6796875 -0.117188,0.375 -0.1875,0.76562496 -0.0625,0.3828125 -0.08594,0.7421875 -0.02344,0.3515625 -0.02344,0.609375 V 5.04 h -2.648438 v -9.0234375 h 1.015625 L 18.445,-1.881875 q 0.21875,-0.5078125 0.5,-0.9296875 0.28125,-0.4296875 0.648437,-0.734375 0.367188,-0.3125 0.828125,-0.484375 0.46875,-0.171875 1.054688,-0.171875 0.304687,0 0.679687,0.054687 0.375,0.046875 0.734375,0.171875 0.359375,0.1171875 0.664063,0.3125 0.304687,0.1953125 0.476562,0.4765625 z" /><path
             id="path71"
             style="fill:#021b5e"
             d="m 34.452812,0.50874996 q 0,0.70312504 -0.1875,1.32031254 -0.1875,0.6171875 -0.523437,1.140625 Q 33.41375,3.493125 32.945,3.915 q -0.46875,0.4140625 -1.03125,0.703125 -0.554688,0.2890625 -1.195313,0.4453125 -0.632812,0.15625 -1.304687,0.15625 -0.671875,0 -1.304688,-0.15625 Q 27.47625,4.9071875 26.91375,4.618125 26.359062,4.3290625 25.890312,3.915 25.421562,3.493125 25.085625,2.9696875 24.7575,2.44625 24.57,1.8290625 q -0.1875,-0.625 -0.1875,-1.32031254 0,-0.6953125 0.1875,-1.3125 0.1875,-0.62499996 0.515625,-1.14843746 0.335937,-0.5234375 0.804687,-0.9375 0.46875,-0.421875 1.023438,-0.7109375 0.5625,-0.2890625 1.195312,-0.4453125 0.632813,-0.15625 1.304688,-0.15625 0.671875,0 1.304687,0.15625 0.640625,0.15625 1.195313,0.4453125 0.5625,0.2890625 1.03125,0.7109375 0.46875,0.4140625 0.796875,0.9375 0.335937,0.5234375 0.523437,1.14843746 0.1875,0.6171875 0.1875,1.3125 z m -2.6875,0 q 0,-0.375 -0.04687,-0.7890625 -0.03906,-0.421875 -0.140625,-0.82031246 -0.101562,-0.40625 -0.28125,-0.7734375 -0.171875,-0.375 -0.429687,-0.6484375 -0.257813,-0.28125 -0.617188,-0.4453125 -0.359375,-0.171875 -0.835937,-0.171875 -0.453125,0 -0.804688,0.171875 -0.351562,0.171875 -0.617187,0.4609375 -0.257813,0.28125 -0.4375,0.65625 -0.171875,0.375 -0.28125,0.78125 -0.109375,0.39843746 -0.15625,0.81249996 -0.04687,0.40625 -0.04687,0.765625 0,0.359375 0.04687,0.77343754 0.04687,0.40625 0.15625,0.8125 0.109375,0.40625 0.28125,0.78125 0.179687,0.3671875 0.4375,0.65625 0.265625,0.28125 0.617187,0.453125 0.351563,0.171875 0.804688,0.171875 0.46875,0 0.828125,-0.1640625 Q 30.60125,3.82125 30.859062,3.54 31.124687,3.25875 31.296562,2.8915625 31.468437,2.524375 31.57,2.118125 q 0.109375,-0.40625 0.148437,-0.8203125 0.04687,-0.41406254 0.04687,-0.78906254 z" /><path
             id="path73"
             style="fill:#021b5e"
             d="m 45.702812,0.53999996 q 0,0.98437504 -0.296875,1.84375004 -0.296875,0.859375 -0.859375,1.5 -0.5625,0.6328125 -1.375,1 -0.8125,0.3671875 -1.84375,0.3671875 -0.523437,0 -1,-0.15625 -0.46875,-0.15625 -0.867187,-0.4375 Q 39.07,4.368125 38.765312,3.9696875 38.468437,3.57125 38.296562,3.0790625 L 37.124687,5.04 H 36.109062 V -7.30375 h 2.640625 v 4.3984375 q 0.46875,-0.6484375 1.125,-0.953125 0.664063,-0.3046875 1.453125,-0.3046875 1.03125,0 1.84375,0.3671875 0.8125,0.3671875 1.375,1 0.5625,0.6328125 0.859375,1.4921875 0.296875,0.85937496 0.296875,1.84374996 z m -2.679687,0 q 0,-0.34375 -0.03906,-0.7265625 -0.03125,-0.390625 -0.117187,-0.7734375 Q 42.780937,-1.3428125 42.624687,-1.694375 42.47625,-2.0459375 42.241875,-2.3115625 42.0075,-2.585 41.679375,-2.74125 41.35125,-2.9053125 40.905937,-2.9053125 q -0.40625,0 -0.726562,0.171875 -0.3125,0.1640625 -0.554688,0.4453125 -0.234375,0.28125 -0.398437,0.640625 -0.164063,0.359375 -0.265625,0.74218746 -0.101563,0.3828125 -0.148438,0.7578125 -0.04687,0.375 -0.04687,0.6875 0,0.3515625 0.03125,0.74218754 0.03906,0.390625 0.125,0.78125 0.08594,0.3828125 0.234375,0.734375 0.15625,0.34375 0.390625,0.6171875 0.242188,0.265625 0.570313,0.421875 0.335937,0.15625 0.789062,0.15625 0.4375,0 0.765625,-0.15625 0.335938,-0.1640625 0.570313,-0.4296875 0.234375,-0.2734375 0.382812,-0.625 0.15625,-0.359375 0.242188,-0.7421875 0.08594,-0.3828125 0.117187,-0.765625 0.03906,-0.39062504 0.03906,-0.73437504 z" /><path
             id="path75"
             style="fill:#021b5e"
             d="m 50.195,-6.163125 q 0,0.296875 -0.117188,0.5625 -0.109375,0.265625 -0.304687,0.4609375 -0.195313,0.1953125 -0.460938,0.3125 -0.265625,0.109375 -0.5625,0.109375 -0.296875,0 -0.5625,-0.109375 -0.257812,-0.1171875 -0.453125,-0.3125 -0.195312,-0.1953125 -0.3125,-0.4609375 -0.109375,-0.265625 -0.109375,-0.5625 0,-0.296875 0.109375,-0.5546875 0.117188,-0.265625 0.3125,-0.4609375 0.195313,-0.1953125 0.453125,-0.3046875 0.265625,-0.1171875 0.5625,-0.1171875 0.296875,0 0.5625,0.1171875 0.265625,0.109375 0.460938,0.3046875 0.195312,0.1953125 0.304687,0.4609375 Q 50.195,-6.46 50.195,-6.163125 Z M 50.077812,5.04 h -2.648437 v -9.015625 h 2.648437 z" /><path
             id="path77"
             style="fill:#021b5e"
             d="m 59.445,5.04 h -7.640625 v -1.046875 0 l 4.726562,-6.9296875 h -4.726562 v -1.046875 H 59.445 v 1.046875 L 54.718437,3.993125 H 59.445 Z" /><path
             id="path79"
             style="fill:#021b5e"
             d="m 68.28875,5.04 h -7.640625 v -1.046875 0 l 4.726562,-6.9296875 h -4.726562 v -1.046875 h 7.640625 v 1.046875 L 63.562187,3.993125 h 4.726563 z" /></g></g></g></g></svg>