<svg xmlns:xlink="http://www.w3.org/1999/xlink" xmlns="http://www.w3.org/2000/svg" width="96.31" height="52.228" viewBox="0 0 96.31 52.228">
  <g id="Green" transform="translate(15.622 1.576)">
    <path id="Path_9183" data-name="Path 9183" d="M163.268,66.89H125.45l7.589,17.189V98.742l39.128.206-.239-14.928Z" transform="translate(-105.681 -53.286)" fill="#fff"/>
    <line id="Line_469" data-name="Line 469" x2="8.142" y2="17.326" transform="translate(27.589 13.712)" fill="none" stroke="#8ad803" stroke-miterlimit="10" stroke-width="1"/>
    <line id="Line_470" data-name="Line 470" x2="8.066" y2="17.518" transform="translate(35.731 13.712)" fill="none" stroke="#8ad803" stroke-miterlimit="10" stroke-width="1"/>
    <line id="Line_471" data-name="Line 471" x2="8.18" y2="17.326" transform="translate(43.372 13.712)" fill="none" stroke="#8ad803" stroke-miterlimit="10" stroke-width="1"/>
    <line id="Line_472" data-name="Line 472" x2="8.258" y2="17.326" transform="translate(50.665 13.712)" fill="none" stroke="#8ad803" stroke-miterlimit="10" stroke-width="1"/>
    <line id="Line_473" data-name="Line 473" y1="0.453" x2="38.782" transform="translate(24.772 24.873)" fill="none" stroke="#8ad803" stroke-miterlimit="10" stroke-width="1"/>
    <line id="Line_474" data-name="Line 474" x2="38.731" transform="translate(27.241 31.156)" fill="none" stroke="#8ad803" stroke-miterlimit="10" stroke-width="1.5"/>
    <line id="Line_475" data-name="Line 475" x2="39.13" transform="translate(21.723 19.23)" fill="none" stroke="#8ad803" stroke-miterlimit="10" stroke-width="1"/>
    <path id="Path_9184" data-name="Path 9184" d="M69.45,100.31V86.494L77.63,69.13,85.5,86.34v13.97" transform="translate(-58.145 -55.187)" fill="#fff" stroke="#8ad803" stroke-miterlimit="10" stroke-width="1.5"/>
    <line id="Line_476" data-name="Line 476" x2="76.907" transform="translate(0.809 49.902)" fill="none" stroke="#8ad803" stroke-miterlimit="10" stroke-width="1.5"/>
    <line id="Line_477" data-name="Line 477" x2="90.814" y2="0.09" transform="translate(-10.127 45.572)" fill="none" stroke="#8ad803" stroke-miterlimit="10" stroke-width="1.5"/>
    <path id="Path_9185" data-name="Path 9185" d="M170.8,95.768V81.876l-8.5-17.62L123.84,63.78" transform="translate(-104.314 -50.646)" fill="none" stroke="#8ad803" stroke-miterlimit="10" stroke-width="1.5"/>
    <g id="Group_2399" data-name="Group 2399" transform="translate(-15.622 25.413)">
      <path id="Path_9186" data-name="Path 9186" d="M89.214,208.533c-1.948-1.948-5.761-2.173-8.457-2.173a.508.508,0,0,0-.507.507c0,2.7.225,6.51,2.173,8.457a4.711,4.711,0,0,0,3.332,1.19,5.059,5.059,0,0,0,3.46-1.19C90.667,213.872,90.931,210.25,89.214,208.533ZM88.5,214.61c-1.082,1.082-4.092,1.267-5.359,0-1.572-1.572-1.845-4.767-1.874-7.233,2.466.028,5.661.3,7.233,1.874C89.767,210.518,89.582,213.527,88.5,214.61Z" transform="translate(-80.25 -206.36)" fill="#8ad803"/>
      <path id="Path_9187" data-name="Path 9187" d="M132.547,213.39c-2.7,0-6.51.225-8.457,2.173-1.717,1.717-1.452,5.339,0,6.792a5.059,5.059,0,0,0,3.46,1.19,4.734,4.734,0,0,0,3.335-1.187c1.948-1.948,2.173-5.761,2.173-8.457a.508.508,0,0,0-.507-.507Zm-2.383,8.247c-1.267,1.267-4.277,1.082-5.359,0s-1.267-4.092,0-5.359c1.572-1.572,4.767-1.845,7.233-1.874C132.009,216.873,131.735,220.065,130.164,221.637Z" transform="translate(-110.754 -211.388)" fill="#8ad803"/>
      <path id="Path_9188" data-name="Path 9188" d="M108.559,222.917a.55.55,0,0,0-.715-.225,12.136,12.136,0,0,0-6.658,8.281c-1.074-6.957-4.175-9.078-5.49-9.978a2.793,2.793,0,0,1-.362-.265.505.505,0,0,0-.715.715,3.948,3.948,0,0,0,.507.384c1.484,1.014,5.419,3.708,5.419,14.446a.507.507,0,0,0,1.014,0c0-4.34,1.165-10.058,6.715-12.666l.083-.04a.469.469,0,0,0,.2-.655Z" transform="translate(-90.422 -216.532)" fill="#8ad803"/>
    </g>
    <g id="Group_2400" data-name="Group 2400" transform="translate(51.783 -0.594)">
      <path id="Path_9189" data-name="Path 9189" d="M371.17,29.874a5.221,5.221,0,1,1,6.622,6.3" transform="translate(-365.263 -21.07)" fill="none" stroke="#8ad803" stroke-miterlimit="10" stroke-width="1.3"/>
      <path id="Path_9190" data-name="Path 9190" d="M344.4,13.964a6.5,6.5,0,0,0,2.577-6.631,6.309,6.309,0,0,0,3.7-1.072,6.244,6.244,0,0,0,2.118-2.491,6.477,6.477,0,0,0,3.365,1.187,6.462,6.462,0,0,0,3.288-.691,5.816,5.816,0,0,0,5.086,4.058,5.907,5.907,0,0,0-.294,3.793,5.843,5.843,0,0,0,1.675,2.782,6.16,6.16,0,0,0-2.107,6.483,5.006,5.006,0,0,0-5.077,2.211" transform="translate(-344.4 -3.77)" fill="none" stroke="#8ad803" stroke-miterlimit="10" stroke-width="1.3"/>
    </g>
  </g>
</svg>