<svg xmlns:xlink="http://www.w3.org/1999/xlink" xmlns="http://www.w3.org/2000/svg" width="58.689" height="55.635" viewBox="0 0 58.689 55.635">
  <g id="Group_2404" data-name="Group 2404" transform="translate(-115.365 -142.875)">
    <g id="Layer_1" data-name="Layer 1" transform="translate(120.57 162.028)">
      <path id="Path_9199" data-name="Path 9199" d="M164.838,327.7l3.459,23.593,2.974-.229-2.083-24.213Z" transform="translate(-160.359 -316.241)" fill="#fff"/>
      <line id="Line_478" data-name="Line 478" x2="8.615" transform="translate(4.835 35.049)" fill="none" stroke="#8ad803" stroke-miterlimit="10" stroke-width="1.2"/>
      <path id="Path_9200" data-name="Path 9200" d="M154.331,193.561l-45.778,6.888.671,4.937,45.717-6.827Z" transform="translate(-108.554 -193.561)" fill="#fff"/>
      <line id="Line_479" data-name="Line 479" x2="0.651" y2="4.512" transform="translate(2.387 6.751)" fill="none" stroke="#8ad803" stroke-miterlimit="10" stroke-width="0.8"/>
      <line id="Line_480" data-name="Line 480" x2="0.568" y2="4.853" transform="translate(4.991 6.181)" fill="none" stroke="#8ad803" stroke-miterlimit="10" stroke-width="0.8"/>
      <line id="Line_481" data-name="Line 481" x2="0.69" y2="4.785" transform="translate(7.253 5.913)" fill="none" stroke="#8ad803" stroke-miterlimit="10" stroke-width="0.8"/>
      <line id="Line_482" data-name="Line 482" x2="0.651" y2="4.639" transform="translate(9.704 5.579)" fill="none" stroke="#8ad803" stroke-miterlimit="10" stroke-width="0.8"/>
      <line id="Line_483" data-name="Line 483" x2="0.651" y2="4.512" transform="translate(12.128 5.287)" fill="none" stroke="#8ad803" stroke-miterlimit="10" stroke-width="0.8"/>
      <line id="Line_484" data-name="Line 484" x2="0.651" y2="4.803" transform="translate(14.532 4.846)" fill="none" stroke="#8ad803" stroke-miterlimit="10" stroke-width="0.8"/>
      <line id="Line_485" data-name="Line 485" x2="0.705" y2="4.887" transform="translate(16.84 4.354)" fill="none" stroke="#8ad803" stroke-miterlimit="10" stroke-width="0.8"/>
      <line id="Line_486" data-name="Line 486" x2="0.651" y2="4.794" transform="translate(19.407 4.13)" fill="none" stroke="#8ad803" stroke-miterlimit="10" stroke-width="0.8"/>
      <line id="Line_487" data-name="Line 487" x2="0.651" y2="4.678" transform="translate(21.768 3.758)" fill="none" stroke="#8ad803" stroke-miterlimit="10" stroke-width="0.8"/>
      <line id="Line_488" data-name="Line 488" x2="0.695" y2="4.817" transform="translate(24.174 3.351)" fill="none" stroke="#8ad803" stroke-miterlimit="10" stroke-width="0.8"/>
      <line id="Line_489" data-name="Line 489" x2="0.651" y2="4.767" transform="translate(26.443 3.031)" fill="none" stroke="#8ad803" stroke-miterlimit="10" stroke-width="0.8"/>
      <line id="Line_490" data-name="Line 490" x2="0.651" y2="4.763" transform="translate(28.857 2.63)" fill="none" stroke="#8ad803" stroke-miterlimit="10" stroke-width="0.8"/>
      <line id="Line_491" data-name="Line 491" x2="0.651" y2="4.795" transform="translate(31.263 2.19)" fill="none" stroke="#8ad803" stroke-miterlimit="10" stroke-width="0.8"/>
      <line id="Line_492" data-name="Line 492" x2="0.683" y2="4.735" transform="translate(33.719 1.999)" fill="none" stroke="#8ad803" stroke-miterlimit="10" stroke-width="0.8"/>
      <line id="Line_493" data-name="Line 493" x2="0.651" y2="4.512" transform="translate(36.266 1.669)" fill="none" stroke="#8ad803" stroke-miterlimit="10" stroke-width="0.8"/>
      <line id="Line_494" data-name="Line 494" x2="0.651" y2="4.793" transform="translate(38.876 1.223)" fill="none" stroke="#8ad803" stroke-miterlimit="10" stroke-width="0.8"/>
      <line id="Line_495" data-name="Line 495" x2="0.651" y2="4.718" transform="translate(41.262 0.785)" fill="none" stroke="#8ad803" stroke-miterlimit="10" stroke-width="0.8"/>
      <line id="Line_496" data-name="Line 496" x2="0.706" y2="4.89" transform="translate(43.394 0.45)" fill="none" stroke="#8ad803" stroke-miterlimit="10" stroke-width="0.8"/>
      <path id="Path_9201" data-name="Path 9201" d="M154.331,193.561l-45.778,6.888.671,4.937,45.717-6.827Z" transform="translate(-108.554 -193.561)" fill="none" stroke="#8ad803" stroke-miterlimit="10" stroke-width="0.9"/>
      <line id="Line_497" data-name="Line 497" x1="3.459" y1="23.793" transform="translate(4.479 11.256)" fill="#fff" stroke="#8ad803" stroke-miterlimit="10" stroke-width="1.2"/>
      <line id="Line_498" data-name="Line 498" x2="2.103" y2="24.442" transform="translate(8.828 10.607)" fill="#fff" stroke="#8ad803" stroke-miterlimit="10" stroke-width="1.2"/>
    </g>
    <g id="Layer_3" data-name="Layer 3" transform="translate(138.001 179.553)">
      <g id="Group_2403" data-name="Group 2403" transform="translate(0 0)">
        <path id="Path_9205" data-name="Path 9205" d="M324.08,458.11l-2.9-1.323-2.556-4.078a4.026,4.026,0,0,0-3.435-1.891H304.3a4.062,4.062,0,0,0-3.228,1.588l-3.3,4.322-5.5,1.507a3.227,3.227,0,0,0-2.364,3.11v2.105a3.226,3.226,0,0,0,3.2,3.251h.473a4.1,4.1,0,0,0,7.942,0h12.412a4.1,4.1,0,0,0,7.942,0h.887a3.226,3.226,0,0,0,3.2-3.251v-2.4A3.219,3.219,0,0,0,324.08,458.11Zm-26.538,10.173a2.623,2.623,0,1,1,2.623-2.623A2.623,2.623,0,0,1,297.542,468.284Zm20.354,0a2.623,2.623,0,1,1,2.623-2.623A2.623,2.623,0,0,1,317.9,468.284Zm4.861-3.059h-.783a4.1,4.1,0,0,0-8.156,0h-12.2a4.1,4.1,0,0,0-8.156,0h-.369a1.744,1.744,0,0,1-1.721-1.773v-2.105a1.741,1.741,0,0,1,1.278-1.692l5.755-1.574a.721.721,0,0,0,.392-.266l3.443-4.514a2.611,2.611,0,0,1,2.061-1h10.89a2.545,2.545,0,0,1,2.187,1.2l2.674,4.27a.728.728,0,0,0,.318.281l3.088,1.411a1.74,1.74,0,0,1,1.012,1.6v2.4h.007A1.744,1.744,0,0,1,322.757,465.225Z" transform="translate(-289.903 -450.818)" fill="#8ad803"/>
      </g>
    </g>
    <g id="Group_2405" data-name="Group 2405" transform="translate(116.342 159.861) rotate(-47)">
      <path id="Path_9189" data-name="Path 9189" d="M371.17,29.837a5.172,5.172,0,1,1,6.56,6.236" transform="translate(-365.318 -21.115)" fill="none" stroke="#8ad803" stroke-miterlimit="10" stroke-width="1.3"/>
      <path id="Path_9190" data-name="Path 9190" d="M344.4,13.869A6.444,6.444,0,0,0,346.953,7.3a6.25,6.25,0,0,0,3.661-1.062,6.185,6.185,0,0,0,2.1-2.468,6.416,6.416,0,0,0,3.334,1.176,6.4,6.4,0,0,0,3.257-.684,5.762,5.762,0,0,0,5.039,4.02,5.852,5.852,0,0,0-.291,3.758,5.788,5.788,0,0,0,1.659,2.756,6.1,6.1,0,0,0-2.088,6.422,4.96,4.96,0,0,0-5.03,2.19" transform="translate(-344.4 -3.77)" fill="none" stroke="#8ad803" stroke-miterlimit="10" stroke-width="1.3"/>
    </g>
  </g>
</svg>