<svg xmlns:xlink="http://www.w3.org/1999/xlink" xmlns="http://www.w3.org/2000/svg" width="54.303" height="55.234" viewBox="0 0 54.303 55.234">
  <g id="Group_2409" data-name="Group 2409" transform="translate(-135.415 -484.861)">
    <path id="Path_9206" data-name="Path 9206" d="M185.962,501.294v39.722h3.256V490.6h-53.3v50.42h2.977V501.573Z" transform="translate(0 -1.42)" fill="#fff"/>
    <line id="Line_499" data-name="Line 499" y2="11.074" transform="translate(184.939 489.069)" fill="none" stroke="#021b5e" stroke-miterlimit="10" stroke-width="1"/>
    <line id="Line_500" data-name="Line 500" y2="11.074" transform="translate(139.76 489.069)" fill="none" stroke="#021b5e" stroke-miterlimit="10" stroke-width="1"/>
    <line id="Line_501" data-name="Line 501" y2="11.074" transform="translate(149.962 489.069)" fill="none" stroke="#021b5e" stroke-miterlimit="10" stroke-width="1"/>
    <line id="Line_502" data-name="Line 502" y2="11.074" transform="translate(144.861 489.069)" fill="none" stroke="#021b5e" stroke-miterlimit="10" stroke-width="1"/>
    <line id="Line_503" data-name="Line 503" y2="11.074" transform="translate(174.737 489.069)" fill="none" stroke="#021b5e" stroke-miterlimit="10" stroke-width="1"/>
    <line id="Line_504" data-name="Line 504" y2="11.074" transform="translate(179.838 489.069)" fill="none" stroke="#021b5e" stroke-miterlimit="10" stroke-width="1"/>
    <path id="Path_9207" data-name="Path 9207" d="M185.962,501.294v39.722h3.256V490.6h-53.3v50.42h2.977V501.573Z" transform="translate(0 -1.42)" fill="none" stroke="#021b5e" stroke-miterlimit="10" stroke-width="1"/>
    <circle id="Ellipse_255" data-name="Ellipse 255" cx="9.396" cy="9.396" r="9.396" transform="translate(153.218 485.361)" fill="#fff" stroke="#021b5e" stroke-miterlimit="10" stroke-width="1"/>
    <path id="Path_9208" data-name="Path 9208" d="M169.837,501.826l4.883-6.591-3.157.058,1.271-4.844-5.019,6.51,3.242-.01Z" transform="translate(-8.655 -1.38)" fill="#021b5e"/>
    <g id="Group_2407" data-name="Group 2407" transform="translate(158.846 521.765)">
      <g id="Group_2406" data-name="Group 2406" transform="translate(0 0)">
        <path id="Path_9209" data-name="Path 9209" d="M192.3,541.944l-.5-.532-1.763-4.753a2.07,2.07,0,0,0-1.926-1.339H175.511a2.061,2.061,0,0,0-1.925,1.339l-1.739,4.694-.724.67a2.831,2.831,0,0,0-.995,2.153V551.1a2.058,2.058,0,0,0,2.059,2.049h1.3a2.059,2.059,0,0,0,2.059-2.049v-1h12.215v1a2.058,2.058,0,0,0,2.059,2.049h1.3a2.059,2.059,0,0,0,2.059-2.049v-7.107A2.859,2.859,0,0,0,192.3,541.944Zm-17.786-4.95a1.066,1.066,0,0,1,1-.689h12.6a1.073,1.073,0,0,1,1,.689l1.536,4.138H189.5a3.379,3.379,0,0,0-6.684,0h-9.841Zm13.984,4.138h-4.684a2.392,2.392,0,0,1,4.684,0ZM174.561,551.1a1.071,1.071,0,0,1-1.074,1.064h-1.3a1.071,1.071,0,0,1-1.074-1.064v-1.291a2,2,0,0,0,1.074.286h2.374Zm17.633,0a1.071,1.071,0,0,1-1.074,1.064h-1.3a1.074,1.074,0,0,1-1.074-1.064v-1h2.374a2,2,0,0,0,1.074-.286V551.1Zm-1.074-1.989H172.187a1.064,1.064,0,0,1-1.074-1.054v-3.881a1.851,1.851,0,0,1,.655-1.409l.02-.02.67-.63H191.11l.473.507c0,.01.02.015.025.025a1.858,1.858,0,0,1,.581,1.344v4.063h.005A1.066,1.066,0,0,1,191.12,549.11Z" transform="translate(-170.128 -535.319)" fill="#021b5e"/>
      </g>
    </g>
    <g id="Group_2409-2" data-name="Group 2409" transform="translate(144.849 512.974)">
      <path id="Path_9212" data-name="Path 9212" d="M163.971,544.852H159.72v-21.6h-7.465v15.427" transform="translate(-149.282 -523.254)" fill="none" stroke="#021b5e" stroke-miterlimit="10" stroke-width="1"/>
      <path id="Path_9213" data-name="Path 9213" d="M153.839,549.8H148.4a4.683,4.683,0,0,1,1.3-4.884h3.209a4.911,4.911,0,0,1,.931,4.884Z" transform="translate(-148.175 -529.131)" fill="none" stroke="#021b5e" stroke-miterlimit="10" stroke-width="1"/>
      <line id="Line_507" data-name="Line 507" y2="2.698" transform="translate(4.454 20.9)" fill="none" stroke="#021b5e" stroke-miterlimit="10" stroke-width="1"/>
      <line id="Line_508" data-name="Line 508" y2="2.698" transform="translate(1.233 20.9)" fill="none" stroke="#021b5e" stroke-miterlimit="10" stroke-width="1"/>
    </g>
    <line id="Line_509" data-name="Line 509" x2="18.977" transform="translate(138.334 539.595)" fill="none" stroke="#021b5e" stroke-miterlimit="10" stroke-width="1"/>
  </g>
</svg>