<svg xmlns:xlink="http://www.w3.org/1999/xlink" xmlns="http://www.w3.org/2000/svg" width="103.066" height="56.947" viewBox="0 0 103.066 56.947">
  <g id="Group_2418" data-name="Group 2418" transform="translate(-292.816 -7955.142)">
    <g id="Layer_3" data-name="Layer 3" transform="translate(297.671 7968.389)">
      <path id="Path_9225" data-name="Path 9225" d="M25.22,314.18V315.6l7.874,6.194h9.658l8.188-6.089V314.18Z" transform="translate(-25.22 -309.508)" fill="none" stroke="#021b5e" stroke-miterlimit="10" stroke-width="1.3"/>
      <path id="Path_9226" data-name="Path 9226" d="M56.246,278.031l-7.874,38.633,9.763-5.931L68,316.664l-8.031-38.633Z" transform="translate(-45.38 -278.031)" fill="#fff" stroke="#021b5e" stroke-miterlimit="10" stroke-width="1.3"/>
      <line id="Line_525" data-name="Line 525" x1="8.457" y2="10.209" transform="translate(7.467 6.404)" fill="none" stroke="#021b5e" stroke-miterlimit="10" stroke-width="1.3"/>
      <line id="Line_526" data-name="Line 526" x2="8.521" y2="10.284" transform="translate(9.54 6.404)" fill="none" stroke="#021b5e" stroke-miterlimit="10" stroke-width="1.3"/>
      <line id="Line_527" data-name="Line 527" x1="13.141" y2="9.719" transform="translate(5.205 18.057)" fill="none" stroke="#021b5e" stroke-miterlimit="10" stroke-width="1.3"/>
      <line id="Line_528" data-name="Line 528" x2="13.248" y2="10.081" transform="translate(7.162 18.057)" fill="none" stroke="#021b5e" stroke-miterlimit="10" stroke-width="1.3"/>
      <line id="Line_529" data-name="Line 529" x2="5.698" transform="translate(9.865 4.672)" fill="none" stroke="#021b5e" stroke-miterlimit="10" stroke-width="1.3"/>
      <line id="Line_530" data-name="Line 530" x2="10.961" transform="translate(7.247 17.296)" fill="none" stroke="#021b5e" stroke-miterlimit="10" stroke-width="1.3"/>
      <line id="Line_531" data-name="Line 531" x2="15.351" transform="translate(5.111 28.237)" fill="none" stroke="#021b5e" stroke-miterlimit="10" stroke-width="1.3"/>
      <line id="Line_532" data-name="Line 532" y2="3.819" transform="translate(25.72 5.971)" fill="none" stroke="#021b5e" stroke-miterlimit="10" stroke-width="1.3"/>
      <line id="Line_533" data-name="Line 533" y2="3.819" transform="translate(0 5.971)" fill="none" stroke="#021b5e" stroke-miterlimit="10" stroke-width="1.3"/>
      <path id="Path_9227" data-name="Path 9227" d="M224.243,317.387A8.1,8.1,0,0,0,228,322.314a10.515,10.515,0,0,0,3.535,1.3" transform="translate(-198.523 -312.301)" fill="none" stroke="#021b5e" stroke-miterlimit="10" stroke-width="0.8"/>
      <path id="Path_9228" data-name="Path 9228" d="M202.374,341.476a8.329,8.329,0,0,0,4.535,4.927,14.464,14.464,0,0,0,4.265,1.3" transform="translate(-179.48 -333.277)" fill="none" stroke="#021b5e" stroke-miterlimit="10" stroke-width="0.8"/>
    </g>
    <g id="Layer_1" data-name="Layer 1" transform="translate(296.316 7968.164)">
      <path id="Path_9229" data-name="Path 9229" d="M369.751,276.291h-47.14l9.459,21.425v18.278l48.773.256-.3-18.607Z" transform="translate(-282.824 -276.291)" fill="#fff"/>
      <line id="Line_534" data-name="Line 534" x2="10.149" y2="22.016" transform="translate(49.993 0.002)" fill="none" stroke="#021b5e" stroke-miterlimit="10" stroke-width="1.5"/>
      <line id="Line_535" data-name="Line 535" x2="95.862" transform="translate(0 43.174)" fill="none" stroke="#021b5e" stroke-miterlimit="10" stroke-width="1.5"/>
      <line id="Line_536" data-name="Line 536" x2="103.066" transform="translate(-3.5 39.571)" fill="none" stroke="#021b5e" stroke-miterlimit="10" stroke-width="1.5"/>
      <line id="Line_537" data-name="Line 537" x2="10.053" y2="22.259" transform="translate(60.142 0)" fill="none" stroke="#021b5e" stroke-miterlimit="10" stroke-width="1.5"/>
      <line id="Line_538" data-name="Line 538" x2="10.197" y2="22.018" transform="translate(69.666 0)" fill="none" stroke="#021b5e" stroke-miterlimit="10" stroke-width="1.5"/>
      <line id="Line_539" data-name="Line 539" x2="10.293" y2="21.931" transform="translate(78.757 0.087)" fill="none" stroke="#021b5e" stroke-miterlimit="10" stroke-width="1.5"/>
      <line id="Line_540" data-name="Line 540" y1="0.565" x2="48.389" transform="translate(45.927 14.334)" fill="none" stroke="#021b5e" stroke-miterlimit="10" stroke-width="1.5"/>
      <line id="Line_541" data-name="Line 541" x2="48.142" transform="translate(42.682 7.3)" fill="none" stroke="#021b5e" stroke-miterlimit="10" stroke-width="1.5"/>
      <line id="Line_542" data-name="Line 542" x2="48.917" transform="translate(49.102 21.878)" fill="none" stroke="#021b5e" stroke-miterlimit="10" stroke-width="1.5"/>
      <path id="Path_9230" data-name="Path 9230" d="M378.806,315.577V298.261L368.217,276.3l-47.945-.006" transform="translate(-280.787 -276.291)" fill="none" stroke="#021b5e" stroke-miterlimit="10" stroke-width="1.5"/>
      <path id="Path_9231" data-name="Path 9231" d="M240.977,318.418V301.2l10.2-21.645,9.812,21.452v17.412" transform="translate(-211.74 -279.132)" fill="#fff" stroke="#021b5e" stroke-miterlimit="10" stroke-width="1.5"/>
    </g>
    <g id="Layer_2" data-name="Layer 2" transform="translate(376.189 7956.273)">
      <path id="Path_9232" data-name="Path 9232" d="M671.818,219.963a4.458,4.458,0,1,1,5.656,5.375" transform="translate(-666.775 -212.447)" fill="none" stroke="#021b5e" stroke-miterlimit="10" stroke-width="1.5"/>
      <path id="Path_9233" data-name="Path 9233" d="M632.8,192.98a5.553,5.553,0,0,0,2.2-5.66,5.287,5.287,0,0,0,4.965-3.042,5.483,5.483,0,0,0,5.68.424,5.064,5.064,0,0,0,1.867,2.567,5.011,5.011,0,0,0,2.476.9,4.947,4.947,0,0,0,1.179,5.615,5.257,5.257,0,0,0-1.8,5.536,4.274,4.274,0,0,0-4.336,1.888" transform="translate(-632.795 -184.278)" fill="none" stroke="#021b5e" stroke-miterlimit="10" stroke-width="1.5"/>
    </g>
  </g>
</svg>