<svg xmlns:xlink="http://www.w3.org/1999/xlink" xmlns="http://www.w3.org/2000/svg" width="74.079" height="44.267" viewBox="0 0 74.079 44.267">
  <g id="Micro" transform="translate(-3.25 0.315)">
    <g id="Layer_1" transform="translate(10.172 33.473)">
      <path id="Path_8864" data-name="Path 8864" d="M195.721,388.54h8.336v4.609H181.62V388.54h8.537" transform="translate(-170.172 -383.477)" fill="none" stroke="#021b5e" stroke-miterlimit="10" stroke-width="1.5"/>
      <path id="Path_8865" data-name="Path 8865" d="M275.593,337.509v5.054H270.73V337.5" transform="translate(-250.442 -337.5)" fill="none" stroke="#021b5e" stroke-miterlimit="10" stroke-width="1.5"/>
      <path id="Path_8866" data-name="Path 8866" d="M66.22,435.57h45.439" transform="translate(-66.22 -425.841)" fill="none" stroke="#021b5e" stroke-miterlimit="10" stroke-width="1.5"/>
    </g>
    <g id="Layer_2" transform="translate(4 0.435)">
      <path id="Path_8867" data-name="Path 8867" d="M9.384,4.46,4,31.555v5.562H61.677V31.555l-5.31-27.1Z" transform="translate(-4 -4.46)" fill="none" stroke="#021b5e" stroke-miterlimit="10" stroke-width="1.5"/>
      <line id="Line_463" data-name="Line 463" x2="50.666" transform="translate(3.467 9.771)" fill="none" stroke="#021b5e" stroke-miterlimit="10" stroke-width="1.5"/>
      <line id="Line_464" data-name="Line 464" x2="54.2" transform="translate(1.754 18.401)" fill="none" stroke="#021b5e" stroke-miterlimit="10" stroke-width="1.5"/>
      <line id="Line_465" data-name="Line 465" x1="46.807" transform="translate(10.619 27.247)" fill="none" stroke="#021b5e" stroke-linecap="round" stroke-linejoin="round" stroke-width="1.5"/>
      <line id="Line_466" data-name="Line 466" x2="7.649" transform="translate(0.082 27.203)" fill="none" stroke="#021b5e" stroke-linecap="round" stroke-linejoin="round" stroke-width="1.5"/>
      <line id="Line_467" data-name="Line 467" x1="1.973" y2="27.5" transform="translate(19.332)" fill="none" stroke="#021b5e" stroke-miterlimit="10" stroke-width="1.5"/>
      <line id="Line_468" data-name="Line 468" x2="1.612" y2="27.5" transform="translate(36.372)" fill="none" stroke="#021b5e" stroke-miterlimit="10" stroke-width="1.5"/>
    </g>
    <g id="Layer_3" transform="translate(67.033 -0.009)">
      <rect id="Rectangle_67761" data-name="Rectangle 67761" width="1.773" height="3.208" transform="translate(3.637 12.898) rotate(-90)" fill="#021b5e"/>
      <rect id="Rectangle_67762" data-name="Rectangle 67762" width="17.227" height="8.61" transform="translate(0.936 30.18) rotate(-90)" fill="none" stroke="#021b5e" stroke-miterlimit="10" stroke-width="1.5"/>
      <path id="Path_8868" data-name="Path 8868" d="M655.422,348.3v6.232H651.37" transform="translate(-650.182 -313.747)" fill="none" stroke="#021b5e" stroke-miterlimit="10" stroke-width="1.5"/>
      <path id="Path_8869" data-name="Path 8869" d="M651.37,25.85h4.052v6.109" transform="translate(-650.182 -23.285)" fill="none" stroke="#021b5e" stroke-miterlimit="10" stroke-width="1.5"/>
      <path id="Path_8870" data-name="Path 8870" d="M639.415,0l-.025,5.529a.952.952,0,0,0,.6-.046,1.489,1.489,0,0,0,.611-1.672l.01-2.077a1.455,1.455,0,0,0-.525-1.591A1.132,1.132,0,0,0,639.416,0Z" transform="translate(-639.39 0.009)" fill="#021b5e"/>
      <path id="Path_8871" data-name="Path 8871" d="M639.415,383.1l-.025,5.529a.953.953,0,0,0,.6-.046,1.489,1.489,0,0,0,.611-1.672l.01-2.077a1.455,1.455,0,0,0-.525-1.591,1.132,1.132,0,0,0-.667-.144Z" transform="translate(-639.39 -345.086)" fill="#021b5e"/>
    </g>
    <g id="Layer_4" transform="translate(67.969 24.494)">
      <rect id="Rectangle_67763" data-name="Rectangle 67763" width="5.493" height="8.61" transform="translate(0 5.493) rotate(-90)" fill="#021b5e"/>
    </g>
    <g id="Layer_5" transform="translate(69.905 15.342)">
      <path id="Path_8872" data-name="Path 8872" d="M671.76,154.73l-3.419,4.44H670.5l-.93,3.294,3.512-4.383-2.215-.035Z" transform="translate(-668.34 -154.73)" fill="#021b5e"/>
    </g>
  </g>
</svg>