<svg xmlns:xlink="http://www.w3.org/1999/xlink" xmlns="http://www.w3.org/2000/svg" width="98.401" height="57.482" viewBox="0 0 98.401 57.482">
  <g id="Group_2416" data-name="Group 2416" transform="translate(-67.709 -51.822)">
    <g id="Layer_2" data-name="Layer 2" transform="translate(137.621 88.051)">
      <g id="Group_2415" data-name="Group 2415" transform="translate(0)">
        <path id="Path_9243" data-name="Path 9243" d="M791.574,421.653v19.324a.691.691,0,0,0,.691.691h21.989a.691.691,0,0,0,.691-.691V421.653" transform="translate(-791.538 -421.653)" fill="#fff" stroke="#8ad803" stroke-miterlimit="10" stroke-width="1.2"/>
        <line id="Line_567" data-name="Line 567" x2="6.1" transform="translate(1.93 7.254)" fill="#fff" stroke="#8ad803" stroke-miterlimit="10" stroke-width="1.2"/>
        <line id="Line_568" data-name="Line 568" x2="6.1" transform="translate(1.93 10.478)" fill="#fff" stroke="#8ad803" stroke-miterlimit="10" stroke-width="0.6"/>
        <line id="Line_569" data-name="Line 569" x2="6.1" transform="translate(1.93 11.768)" fill="#fff" stroke="#8ad803" stroke-miterlimit="10" stroke-width="0.6"/>
        <line id="Line_570" data-name="Line 570" x2="6.1" transform="translate(1.93 13.058)" fill="#fff" stroke="#8ad803" stroke-miterlimit="10" stroke-width="0.6"/>
        <line id="Line_571" data-name="Line 571" x2="6.1" transform="translate(1.93 14.348)" fill="#fff" stroke="#8ad803" stroke-miterlimit="10" stroke-width="0.6"/>
        <line id="Line_572" data-name="Line 572" x2="23.407" transform="translate(0 2.685)" fill="none" stroke="#8ad803" stroke-miterlimit="10" stroke-width="1.2"/>
        <line id="Line_573" data-name="Line 573" x2="22.763" transform="translate(0.365 17.517)" fill="none" stroke="#8ad803" stroke-miterlimit="10" stroke-width="1.2"/>
        <path id="Path_9244" data-name="Path 9244" d="M945.563,478.048H942.41l-2.665,5.479h2.246l-1.827,4.708,5.4-6.508h-2.151Z" transform="translate(-925.563 -472.664)" fill="#8ad803"/>
      </g>
    </g>
    <g id="Layer_1" data-name="Layer 1" transform="translate(78.458 71.943)">
      <path id="Path_9245" data-name="Path 9245" d="M342.306,595.915h7.2v3.962H330.131v-3.962H337.5" transform="translate(-314.987 -563.17)" fill="#fff" stroke="#8ad803" stroke-miterlimit="10" stroke-width="1.2"/>
      <path id="Path_9246" data-name="Path 9246" d="M413.881,550.349v4.344H409.7v-4.351" transform="translate(-386.961 -521.947)" fill="#fff" stroke="#8ad803" stroke-miterlimit="10" stroke-width="1.2"/>
      <path id="Path_9247" data-name="Path 9247" d="M171.517,637.972H259.17" transform="translate(-171.517 -601.211)" fill="none" stroke="#8ad803" stroke-miterlimit="10" stroke-width="1.2"/>
      <path id="Path_9248" data-name="Path 9248" d="M176.145,252.936l-4.627,23.286V281h49.568v-4.781l-4.564-23.286Z" transform="translate(-171.517 -252.936)" fill="#fff" stroke="#8ad803" stroke-miterlimit="10" stroke-width="1.2"/>
      <line id="Line_574" data-name="Line 574" x2="29.061" transform="translate(17.462 8.397)" fill="none" stroke="#8ad803" stroke-miterlimit="10" stroke-width="1.2"/>
      <line id="Line_575" data-name="Line 575" x2="14.883" transform="translate(2.819 8.397)" fill="none" stroke="#8ad803" stroke-miterlimit="10" stroke-width="1.2"/>
      <line id="Line_576" data-name="Line 576" x2="15.535" transform="translate(1.507 15.815)" fill="none" stroke="#8ad803" stroke-miterlimit="10" stroke-width="1.2"/>
      <line id="Line_577" data-name="Line 577" x2="30.88" transform="translate(17.042 15.815)" fill="none" stroke="#8ad803" stroke-miterlimit="10" stroke-width="1.2"/>
      <line id="Line_578" data-name="Line 578" x1="40.227" transform="translate(9.126 23.417)" fill="none" stroke="#8ad803" stroke-linecap="round" stroke-linejoin="round" stroke-width="1.2"/>
      <line id="Line_579" data-name="Line 579" x2="6.574" transform="translate(0.07 23.379)" fill="none" stroke="#8ad803" stroke-linecap="round" stroke-linejoin="round" stroke-width="1.2"/>
      <line id="Line_580" data-name="Line 580" x1="1.696" y2="23.635" transform="translate(16.614 0)" fill="none" stroke="#8ad803" stroke-miterlimit="10" stroke-width="1.2"/>
      <line id="Line_581" data-name="Line 581" x2="1.386" y2="23.635" transform="translate(31.259 0)" fill="none" stroke="#8ad803" stroke-miterlimit="10" stroke-width="1.2"/>
      <path id="Path_9249" data-name="Path 9249" d="M677.725,430.644h5.336v8.823h5.264" transform="translate(-629.395 -413.677)" fill="none" stroke="#8ad803" stroke-miterlimit="10" stroke-width="1.2"/>
    </g>
    <g id="Layer_3" data-name="Layer 3" transform="translate(68.635 52.839)">
      <path id="Path_9250" data-name="Path 9250" d="M142.142,140.2a6.926,6.926,0,1,1,11.122-4.821" transform="translate(-132.684 -120.634)" fill="none" stroke="#8ad803" stroke-miterlimit="10" stroke-width="1.2"/>
      <path id="Path_9251" data-name="Path 9251" d="M76.725,80.34a8.628,8.628,0,0,0-6.756-6.585,8.214,8.214,0,0,0-1.334-8.948,8.519,8.519,0,0,0,4.057-7.864,7.867,7.867,0,0,0,4.8-1.11,7.787,7.787,0,0,0,2.79-2.994,7.686,7.686,0,0,0,8.745,1.726A8.167,8.167,0,0,0,95.854,60.5a6.64,6.64,0,0,0,.065,7.347" transform="translate(-68.635 -52.839)" fill="none" stroke="#8ad803" stroke-miterlimit="10" stroke-width="1.2"/>
    </g>
  </g>
</svg>