<svg xmlns:xlink="http://www.w3.org/1999/xlink" xmlns="http://www.w3.org/2000/svg" width="58.327" height="51.029" viewBox="0 0 58.327 51.029">
  <g id="Group_2401" data-name="Group 2401" transform="translate(-294.769 -7964.476)">
    <g id="Mobile_Soluations" data-name="Mobile Soluations" transform="translate(294.769 7978.348)">
      <g id="Layer_6" transform="translate(0 0)">
        <path id="Path_9191" data-name="Path 9191" d="M2.849,367.019V353.548H8.683v7.891H7.731a1.15,1.15,0,0,0-1.149,1.149v1.673a1.15,1.15,0,0,0,1.149,1.149h33.5a1.15,1.15,0,0,0,1.149-1.149v-1.673a1.15,1.15,0,0,0-1.149-1.149h-.952v-7.891h5.834v9.426a.674.674,0,0,0,.675.674h0a.674.674,0,0,0,.675-.674V350.492a1.522,1.522,0,0,0-1.521-1.521H43.655v-1.022a2.752,2.752,0,0,0-2.749-2.749H8.058a2.752,2.752,0,0,0-2.749,2.749v1.022H3.021A1.522,1.522,0,0,0,1.5,350.492v25a1.522,1.522,0,0,0,1.521,1.521H9.491a4.335,4.335,0,1,0,8.431,0H31.04a4.335,4.335,0,1,0,8.431,0h6.472a1.522,1.522,0,0,0,1.521-1.521v-9.465a.675.675,0,1,0-1.349,0v9.465a.172.172,0,0,1-.172.172H38.892a4.335,4.335,0,0,0-4.462-1.9,2.162,2.162,0,0,0-2.1-1.669H16.635a2.162,2.162,0,0,0-2.1,1.669,4.336,4.336,0,0,0-4.463,1.9H3.021a.172.172,0,0,1-.172-.172v-8.476Zm10.859,13.99a2.986,2.986,0,1,1,2.986-2.986,2.989,2.989,0,0,1-2.986,2.986Zm17.912-5.342H17.343a4.369,4.369,0,0,0-1.518-1.424.81.81,0,0,1,.809-.8H32.328a.81.81,0,0,1,.809.8,4.369,4.369,0,0,0-1.518,1.424Zm3.637,5.342a2.986,2.986,0,1,1,2.986-2.986,2.989,2.989,0,0,1-2.986,2.986ZM6.657,347.95a1.4,1.4,0,0,1,1.4-1.4H40.906a1.4,1.4,0,0,1,1.4,1.4v1.022H6.657Zm34.375,14.837v1.272H7.931v-1.272h3.378a.675.675,0,0,0,0-1.349H10.032V353.6h28.9v7.84H14.5a.675.675,0,0,0,0,1.349H41.033ZM2.849,352.2v-1.706a.172.172,0,0,1,.172-.171H45.944a.172.172,0,0,1,.172.171V352.2Z" transform="translate(-1.5 -345.2)" fill="#021b5e"/>
      </g>
    </g>
    <g id="Group_2401-2" data-name="Group 2401" transform="translate(330.786 7965.458)">
      <path id="Path_9189" data-name="Path 9189" d="M371.17,29.837a5.172,5.172,0,1,1,6.56,6.236" transform="translate(-365.318 -21.115)" fill="none" stroke="#021b5e" stroke-miterlimit="10" stroke-width="1.3"/>
      <path id="Path_9190" data-name="Path 9190" d="M344.4,13.869A6.444,6.444,0,0,0,346.953,7.3a6.25,6.25,0,0,0,3.661-1.062,6.185,6.185,0,0,0,2.1-2.468,6.416,6.416,0,0,0,3.334,1.176,6.4,6.4,0,0,0,3.257-.684,5.762,5.762,0,0,0,5.039,4.02,5.852,5.852,0,0,0-.291,3.758,5.788,5.788,0,0,0,1.659,2.756,6.1,6.1,0,0,0-2.088,6.422,4.96,4.96,0,0,0-5.03,2.19" transform="translate(-344.4 -3.77)" fill="none" stroke="#021b5e" stroke-miterlimit="10" stroke-width="1.3"/>
    </g>
  </g>
</svg>